<svg xmlns="http://www.w3.org/2000/svg" width="900" height="520" viewBox="0 0 900 520">
<rect width="900" height="520" fill="#ffffff"/><text x="30" y="35" font-family="sans-serif" font-size="22">Voxel Nexus descriptive timing baseline</text>
<text x="30" y="65" font-family="sans-serif" font-size="15">First correct frame median (ms)</text>
<text x="30" y="96" font-family="monospace" font-size="13">64</text>
<rect x="85" y="79" width="650" height="21" fill="#4c78a8"/>
<text x="745" y="95" font-family="monospace" font-size="12">688.226</text>
<text x="30" y="128" font-family="monospace" font-size="13">128</text>
<rect x="85" y="111" width="407.832342670958" height="21" fill="#f58518"/>
<text x="503" y="127" font-family="monospace" font-size="12">431.817</text>
<text x="30" y="160" font-family="monospace" font-size="13">256</text>
<rect x="85" y="143" width="629.995510924893" height="21" fill="#54a24b"/>
<text x="725" y="159" font-family="monospace" font-size="12">667.045</text>
<text x="30" y="210" font-family="sans-serif" font-size="15">Steady CPU frame median (ms)</text>
<text x="30" y="241" font-family="monospace" font-size="13">64</text>
<rect x="85" y="224" width="50.2164169055268" height="21" fill="#4c78a8"/>
<text x="145" y="240" font-family="monospace" font-size="12">0.201</text>
<text x="30" y="273" font-family="monospace" font-size="13">128</text>
<rect x="85" y="256" width="161.777888925226" height="21" fill="#f58518"/>
<text x="257" y="272" font-family="monospace" font-size="12">0.647</text>
<text x="30" y="305" font-family="monospace" font-size="13">256</text>
<rect x="85" y="288" width="650" height="21" fill="#54a24b"/>
<text x="745" y="304" font-family="monospace" font-size="12">2.599</text>
<text x="30" y="355" font-family="sans-serif" font-size="15">Steady GPU frame median (ms)</text>
<text x="30" y="386" font-family="monospace" font-size="13">64</text>
<rect x="85" y="369" width="39.7367283636733" height="21" fill="#4c78a8"/>
<text x="135" y="385" font-family="monospace" font-size="12">0.154</text>
<text x="30" y="418" font-family="monospace" font-size="13">128</text>
<rect x="85" y="401" width="152.402623817757" height="21" fill="#f58518"/>
<text x="247" y="417" font-family="monospace" font-size="12">0.59</text>
<text x="30" y="450" font-family="monospace" font-size="13">256</text>
<rect x="85" y="433" width="650" height="21" fill="#54a24b"/>
<text x="745" y="449" font-family="monospace" font-size="12">2.517</text>
<text x="30" y="505" font-family="sans-serif" font-size="12" fill="#555">Medians describe this recorded Windows/Vulkan run; no performance pass/fail threshold is applied.</text></svg>
