<svg xmlns="http://www.w3.org/2000/svg" width="900" height="520" viewBox="0 0 900 520">
<rect width="900" height="520" fill="#ffffff"/><text x="30" y="35" font-family="sans-serif" font-size="22">Voxel Nexus descriptive timing baseline</text>
<text x="30" y="65" font-family="sans-serif" font-size="15">First correct frame median (ms)</text>
<text x="30" y="96" font-family="monospace" font-size="13">64</text>
<rect x="85" y="79" width="446.038646339323" height="21" fill="#4c78a8"/>
<text x="541" y="95" font-family="monospace" font-size="12">462.408</text>
<text x="30" y="128" font-family="monospace" font-size="13">128</text>
<rect x="85" y="111" width="455.641724453025" height="21" fill="#f58518"/>
<text x="551" y="127" font-family="monospace" font-size="12">472.363</text>
<text x="30" y="160" font-family="monospace" font-size="13">256</text>
<rect x="85" y="143" width="650" height="21" fill="#54a24b"/>
<text x="745" y="159" font-family="monospace" font-size="12">673.854</text>
<text x="30" y="210" font-family="sans-serif" font-size="15">Steady CPU frame median (ms)</text>
<text x="30" y="241" font-family="monospace" font-size="13">64</text>
<rect x="85" y="224" width="51.0458538037815" height="21" fill="#4c78a8"/>
<text x="146" y="240" font-family="monospace" font-size="12">0.211</text>
<text x="30" y="273" font-family="monospace" font-size="13">128</text>
<rect x="85" y="256" width="157.322837576299" height="21" fill="#f58518"/>
<text x="252" y="272" font-family="monospace" font-size="12">0.65</text>
<text x="30" y="305" font-family="monospace" font-size="13">256</text>
<rect x="85" y="288" width="650" height="21" fill="#54a24b"/>
<text x="745" y="304" font-family="monospace" font-size="12">2.687</text>
<text x="30" y="355" font-family="sans-serif" font-size="15">Steady GPU frame median (ms)</text>
<text x="30" y="386" font-family="monospace" font-size="13">64</text>
<rect x="85" y="369" width="39.4820136655949" height="21" fill="#4c78a8"/>
<text x="134" y="385" font-family="monospace" font-size="12">0.155</text>
<text x="30" y="418" font-family="monospace" font-size="13">128</text>
<rect x="85" y="401" width="150.759897508039" height="21" fill="#f58518"/>
<text x="246" y="417" font-family="monospace" font-size="12">0.591</text>
<text x="30" y="450" font-family="monospace" font-size="13">256</text>
<rect x="85" y="433" width="650" height="21" fill="#54a24b"/>
<text x="745" y="449" font-family="monospace" font-size="12">2.548</text>
<text x="30" y="505" font-family="sans-serif" font-size="12" fill="#555">Medians describe this recorded Windows/Vulkan run; no performance pass/fail threshold is applied.</text></svg>
